# xmcd
# Track frame offsets:
# 150
# 10472
# 20152
# 32087
# 44475
# 62292
# 73412
# 85600
# 95137
# 105025
# 121155
# 133370
# 146177
# 157012
# 166307
# 179295
# 189105
# 203810
# 213645
# 226187
# 238017
# 247010
#
# Disc length: 3487 seconds
# Revision: 0
# Processed by: cddbd v1.4PL0 Copyright (c) Steve Scherf et al.
# Submitted via: VisiTrax 2.9.3.171 - For more info visit www.synapsa.com
#
DISCID=3a0d9d16
DTITLE=Various Artist - The Love Songs Collection
DYEAR=1900
DGENRE=
TTITLE0=Gene Chandler - Duke of Earl
TTITLE1=Shangri-las - Remember (walking in the sand)
TTITLE2=The Crewcuts - Sh Boom Sh Boom
TTITLE3=The Crystals - Then he kissed me
TTITLE4=Brook Benton - Rainy night in Georgia
TTITLE5=The Cascades - Rhythm of the rain
TTITLE6=Mary Wells - My Guy
TTITLE7=Peggy Lee - Let there be love
TTITLE8=Jimmy Clanton - Venus in Blue Jeans
TTITLE9=Jack Jones - Lying Eyes
TTITLE10=Gladys Knight - Letter full of tears
TTITLE11=Billie Jo Spears - It coulda been me
TTITLE12=The Chiffons - Sweet talking guy
TTITLE13=Gladys Knight - Every beat of my heart
TTITLE14=Ray Peterson - Tell Laura I love her
TTITLE15=Billy Everett - It's in his kiss
TTITLE16=George McCrae - Rock your baby
TTITLE17=The Angels - My Boyfriends back
TTITLE18=The Foundations - Build me up Buttercup
TTITLE19=Bobby Vee - The night has a thousand eyes
TTITLE20=Wayne Fontana - Groovy kind of love
TTITLE21=Percy Sledge - Warm and tender love
EXTD=Various Artists
EXTT0=
EXTT1=
EXTT2=
EXTT3=
EXTT4=
EXTT5=
EXTT6=
EXTT7=
EXTT8=
EXTT9=
EXTT10=
EXTT11=
EXTT12=
EXTT13=
EXTT14=
EXTT15=
EXTT16=
EXTT17=
EXTT18=
EXTT19=
EXTT20=
EXTT21=
PLAYORDER=
